<svg width="221" height="221" viewBox="0 0 221 221" fill="none" xmlns="http://www.w3.org/2000/svg">
<circle cx="110.5" cy="110.5" r="110.5" fill="white"/>
<mask id="mask0_1_18" style="mask-type:alpha" maskUnits="userSpaceOnUse" x="0" y="0" width="221" height="221">
<circle cx="110.5" cy="110.5" r="110.5" fill="white"/>
</mask>
<g mask="url(#mask0_1_18)">
<rect x="-28" y="-2" width="294" height="114" fill="#F04037"/>
<mask id="path-4-inside-1_1_18" fill="white">
<path fill-rule="evenodd" clip-rule="evenodd" d="M143.675 93H341V127H144.184C138.08 139.438 125.29 148 110.5 148C95.71 148 82.9198 139.438 76.8157 127H-119V93H77.3252C83.6127 81.1055 96.1098 73 110.5 73C124.89 73 137.387 81.1055 143.675 93Z"/>
</mask>
<path fill-rule="evenodd" clip-rule="evenodd" d="M143.675 93H341V127H144.184C138.08 139.438 125.29 148 110.5 148C95.71 148 82.9198 139.438 76.8157 127H-119V93H77.3252C83.6127 81.1055 96.1098 73 110.5 73C124.89 73 137.387 81.1055 143.675 93Z" fill="#58585B"/>
<path d="M143.675 93L141.023 94.402L141.867 96H143.675V93ZM341 93H344V90H341V93ZM341 127V130H344V127H341ZM144.184 127V124H142.315L141.491 125.678L144.184 127ZM76.8157 127L79.5088 125.678L78.6852 124H76.8157V127ZM-119 127H-122V130H-119V127ZM-119 93V90H-122V93H-119ZM77.3252 93V96H79.1328L79.9775 94.402L77.3252 93ZM143.675 96H341V90H143.675V96ZM338 93V127H344V93H338ZM341 124H144.184V130H341V124ZM141.491 125.678C135.872 137.128 124.102 145 110.5 145V151C126.478 151 140.289 141.747 146.877 128.322L141.491 125.678ZM110.5 145C96.8976 145 85.1282 137.128 79.5088 125.678L74.1225 128.322C80.7114 141.747 94.5224 151 110.5 151V145ZM76.8157 124H-119V130H76.8157V124ZM-116 127V93H-122V127H-116ZM-119 96H77.3252V90H-119V96ZM79.9775 94.402C85.766 83.4514 97.2652 76 110.5 76V70C94.9544 70 81.4594 78.7595 74.673 91.598L79.9775 94.402ZM110.5 76C123.735 76 135.234 83.4514 141.023 94.402L146.327 91.598C139.541 78.7595 126.046 70 110.5 70V76Z" fill="black" mask="url(#path-4-inside-1_1_18)"/>
<circle cx="110.5" cy="110.5" r="109" stroke="black" stroke-width="3"/>
</g>
<circle cx="110.5" cy="110.5" r="25" fill="white" stroke="black" stroke-width="3"/>
<circle cx="110.5" cy="110.5" r="16.5" fill="white" stroke="black" stroke-width="2"/>
</svg>
